<svg width="234" height="40" viewBox="0 0 234 40" fill="none" xmlns="http://www.w3.org/2000/svg">
<mask id="mask0_17_134" style="mask-type:luminance" maskUnits="userSpaceOnUse" x="1" y="0" width="41" height="40">
<path d="M41.2266 0H1.16071V39.1844H41.2266V0Z" fill="white"/>
</mask>
<g mask="url(#mask0_17_134)">
<path fill-rule="evenodd" clip-rule="evenodd" d="M33.7018 0.000244141C37.854 0.000244141 41.2265 3.37128 41.2265 7.52346L41.2266 31.6611C41.2266 35.8122 37.854 39.1843 33.7018 39.1843H8.68543C8.67075 39.1843 8.65607 39.1843 8.64139 39.1842H1.16212L1.16211 31.8078C1.16118 31.759 1.16071 31.7101 1.16071 31.6611V7.52346C1.16071 3.37128 4.53327 0.000244141 8.6854 0.000244141H33.7018Z" fill="#101010" fill-opacity="0.69"/>
<path d="M19.3701 25.9365L16.1431 25.9333V22.0746C16.1431 21.2503 16.4629 20.8212 17.1683 20.7231H19.3701C20.9402 20.7231 21.9558 21.7131 21.9558 23.3153C21.9558 24.961 20.9659 25.9349 19.3701 25.9365ZM16.1431 15.5291V14.5134C16.1431 13.6247 16.5191 13.202 17.3435 13.1473H18.9956C20.4114 13.1473 21.26 13.9943 21.26 15.4134C21.26 16.4933 20.6783 17.7548 19.0471 17.7548H16.1431V15.5291ZM23.4907 19.3796L22.9072 19.0517L23.4167 18.6162C24.0097 18.1067 25.0029 16.961 25.0029 14.9842C25.0029 11.9565 22.655 10.0039 19.0213 10.0039H14.8751V10.0023H14.4026C13.3258 10.0425 12.4629 10.9184 12.4515 12.0015V29.1812H19.1032C23.1419 29.1812 25.7486 26.9827 25.7486 23.5773C25.7486 21.7436 24.9065 20.1767 23.4907 19.3796Z" fill="white"/>
<path d="M27.4808 26.808C27.4808 25.4956 28.5393 24.4338 29.8434 24.4338C31.1508 24.4338 32.2142 25.4956 32.2142 26.808C32.2142 28.1186 31.1508 29.182 29.8434 29.182C28.5393 29.182 27.4808 28.1186 27.4808 26.808Z" fill="white"/>
</g>
<path d="M51.2579 30.3239V9.41583H59.6293C61.1675 9.41583 62.4504 9.64383 63.4781 10.0998C64.5058 10.5558 65.2783 11.1888 65.7956 11.9987C66.3129 12.8019 66.5715 13.7274 66.5715 14.7756C66.5715 15.5923 66.4082 16.3103 66.0814 16.9297C65.7547 17.5422 65.3055 18.0459 64.7338 18.4406C64.169 18.8286 63.5224 19.1042 62.7941 19.2675V19.4717C63.5904 19.5058 64.3357 19.7303 65.0299 20.1456C65.7309 20.5607 66.2992 21.1426 66.7348 21.8913C67.1704 22.6332 67.3882 23.518 67.3882 24.5457C67.3882 25.655 67.1126 26.6453 66.5613 27.5165C66.0168 28.3808 65.2103 29.0648 64.1417 29.5685C63.0732 30.0721 61.7562 30.3239 60.1908 30.3239H51.2579ZM55.6784 26.71H59.2822C60.5141 26.71 61.4125 26.4751 61.9774 26.0055C62.5423 25.5291 62.8248 24.8961 62.8248 24.1066C62.8248 23.5281 62.6853 23.0177 62.4062 22.5753C62.1271 22.1329 61.729 21.7858 61.2118 21.5339C60.7013 21.2821 60.0922 21.1562 59.3843 21.1562H55.6784V26.71ZM55.6784 18.165H58.9555C59.5613 18.165 60.0989 18.0595 60.5686 17.8485C61.045 17.6307 61.4193 17.3244 61.6916 16.9297C61.9706 16.5349 62.1101 16.062 62.1101 15.5106C62.1101 14.7551 61.8413 14.146 61.3036 13.6832C60.7728 13.2204 60.0173 12.989 59.0373 12.989H55.6784V18.165ZM77.268 30.6302C75.6822 30.6302 74.3108 30.2933 73.1537 29.6195C72.0035 28.9389 71.1154 27.9929 70.4892 26.7814C69.863 25.5631 69.5499 24.1508 69.5499 22.5447C69.5499 20.9248 69.863 19.5092 70.4892 18.2977C71.1154 17.0794 72.0035 16.1334 73.1537 15.4596C74.3108 14.779 75.6822 14.4386 77.268 14.4386C78.8538 14.4386 80.2218 14.779 81.372 15.4596C82.5291 16.1334 83.4207 17.0794 84.0468 18.2977C84.673 19.5092 84.986 20.9248 84.986 22.5447C84.986 24.1508 84.673 25.5631 84.0468 26.7814C83.4207 27.9929 82.5291 28.9389 81.372 29.6195C80.2218 30.2933 78.8538 30.6302 77.268 30.6302ZM77.2884 27.2613C78.0098 27.2613 78.6122 27.0571 79.0954 26.6487C79.5786 26.2336 79.9428 25.6686 80.1878 24.954C80.4396 24.2393 80.5655 23.426 80.5655 22.514C80.5655 21.602 80.4396 20.7887 80.1878 20.074C79.9428 19.3594 79.5786 18.7945 79.0954 18.3793C78.6122 17.9642 78.0098 17.7566 77.2884 17.7566C76.5602 17.7566 75.9476 17.9642 75.4508 18.3793C74.9608 18.7945 74.5898 19.3594 74.338 20.074C74.093 20.7887 73.9705 21.602 73.9705 22.514C73.9705 23.426 74.093 24.2393 74.338 24.954C74.5898 25.6686 74.9608 26.2336 75.4508 26.6487C75.9476 27.0571 76.5602 27.2613 77.2884 27.2613ZM94.899 30.6302C93.3132 30.6302 91.9417 30.2933 90.7848 29.6195C89.6345 28.9389 88.7463 27.9929 88.1202 26.7814C87.494 25.5631 87.181 24.1508 87.181 22.5447C87.181 20.9248 87.494 19.5092 88.1202 18.2977C88.7463 17.0794 89.6345 16.1334 90.7848 15.4596C91.9417 14.779 93.3132 14.4386 94.899 14.4386C96.4848 14.4386 97.8529 14.779 99.003 15.4596C100.16 16.1334 101.052 17.0794 101.678 18.2977C102.304 19.5092 102.617 20.9248 102.617 22.5447C102.617 24.1508 102.304 25.5631 101.678 26.7814C101.052 27.9929 100.16 28.9389 99.003 29.6195C97.8529 30.2933 96.4848 30.6302 94.899 30.6302ZM94.9194 27.2613C95.6409 27.2613 96.2432 27.0571 96.7264 26.6487C97.2096 26.2336 97.5737 25.6686 97.8188 24.954C98.0706 24.2393 98.1965 23.426 98.1965 22.514C98.1965 21.602 98.0706 20.7887 97.8188 20.074C97.5737 19.3594 97.2096 18.7945 96.7264 18.3793C96.2432 17.9642 95.6409 17.7566 94.9194 17.7566C94.1912 17.7566 93.5786 17.9642 93.0818 18.3793C92.5918 18.7945 92.2209 19.3594 91.969 20.074C91.724 20.7887 91.6014 21.602 91.6014 22.514C91.6014 23.426 91.724 24.2393 91.969 24.954C92.2209 25.6686 92.5918 26.2336 93.0818 26.6487C93.5786 27.0571 94.1912 27.2613 94.9194 27.2613ZM109.385 25.8115L109.396 20.5947H110.028L115.052 14.6428H120.044L113.296 22.5242H112.264L109.385 25.8115ZM105.445 30.3239V9.41583H109.794V30.3239H105.445ZM115.246 30.3239L110.631 23.494L113.531 20.4212L120.34 30.3239H115.246ZM122.178 30.3239V14.6428H126.527V30.3239H122.178ZM124.362 12.6215C123.716 12.6215 123.161 12.4071 122.699 11.9783C122.242 11.5427 122.014 11.022 122.014 10.4163C122.014 9.81736 122.242 9.30353 122.699 8.87475C123.161 8.43917 123.716 8.22137 124.362 8.22137C125.009 8.22137 125.56 8.43917 126.016 8.87475C126.479 9.30353 126.71 9.81736 126.71 10.4163C126.71 11.022 126.479 11.5427 126.016 11.9783C125.56 12.4071 125.009 12.6215 124.362 12.6215ZM134.359 21.2583V30.3239H130.011V14.6428H134.155V17.4095H134.339C134.686 16.4975 135.268 15.7761 136.085 15.2452C136.902 14.7075 137.892 14.4386 139.056 14.4386C140.144 14.4386 141.094 14.6769 141.904 15.1533C142.714 15.6298 143.344 16.3103 143.792 17.1951C144.242 18.0731 144.466 19.1213 144.466 20.3395V30.3239H140.117V21.1154C140.124 20.1557 139.879 19.407 139.383 18.8694C138.886 18.3249 138.201 18.0527 137.33 18.0527C136.745 18.0527 136.227 18.1786 135.779 18.4304C135.336 18.6822 134.989 19.0498 134.738 19.533C134.492 20.0094 134.366 20.5845 134.359 21.2583ZM154.959 36.531C153.55 36.531 152.342 36.3371 151.335 35.9491C150.334 35.568 149.538 35.0473 148.945 34.3871C148.353 33.7269 147.969 32.9851 147.792 32.1616L151.815 31.6205C151.937 31.9336 152.131 32.2262 152.396 32.4984C152.662 32.7707 153.012 32.9885 153.448 33.1518C153.89 33.3219 154.427 33.407 155.061 33.407C156.007 33.407 156.786 33.1756 157.399 32.7129C158.018 32.2569 158.328 31.4911 158.328 30.4158V27.5471H158.144C157.953 27.9826 157.667 28.3944 157.286 28.7823C156.905 29.1703 156.416 29.4868 155.817 29.7318C155.218 29.9768 154.503 30.0993 153.672 30.0993C152.495 30.0993 151.424 29.8271 150.457 29.2826C149.497 28.7313 148.731 27.8907 148.159 26.761C147.594 25.6244 147.312 24.1883 147.312 22.4528C147.312 20.6764 147.601 19.1927 148.18 18.0017C148.758 16.8105 149.528 15.919 150.487 15.3268C151.454 14.7347 152.512 14.4386 153.663 14.4386C154.541 14.4386 155.275 14.5884 155.867 14.8879C156.46 15.1805 156.936 15.5481 157.297 15.9904C157.664 16.426 157.946 16.8548 158.144 17.2768H158.307V14.6428H162.625V30.4771C162.625 31.811 162.299 32.9272 161.646 33.8257C160.992 34.724 160.087 35.3979 158.93 35.847C157.78 36.303 156.456 36.531 154.959 36.531ZM155.051 26.8325C155.751 26.8325 156.343 26.6589 156.827 26.3118C157.317 25.9579 157.692 25.4542 157.95 24.8009C158.216 24.1407 158.348 23.3511 158.348 22.4324C158.348 21.5136 158.219 20.7173 157.96 20.0434C157.702 19.3628 157.327 18.8354 156.837 18.4611C156.347 18.0867 155.751 17.8995 155.051 17.8995C154.336 17.8995 153.734 18.0935 153.244 18.4815C152.753 18.8626 152.383 19.3935 152.131 20.074C151.879 20.7546 151.753 21.5408 151.753 22.4324C151.753 23.3376 151.879 24.1202 152.131 24.7804C152.389 25.4339 152.76 25.9409 153.244 26.3016C153.734 26.6555 154.336 26.8325 155.051 26.8325ZM168.628 30.5894C167.955 30.5894 167.377 30.3511 166.893 29.8747C166.417 29.3915 166.179 28.813 166.179 28.1392C166.179 27.4722 166.417 26.9005 166.893 26.4241C167.377 25.9477 167.955 25.7095 168.628 25.7095C169.282 25.7095 169.854 25.9477 170.344 26.4241C170.834 26.9005 171.079 27.4722 171.079 28.1392C171.079 28.5884 170.963 29.0002 170.732 29.3745C170.507 29.742 170.211 30.038 169.844 30.2626C169.476 30.4805 169.071 30.5894 168.628 30.5894ZM181.735 30.6302C180.128 30.6302 178.746 30.29 177.589 29.6093C176.439 28.9219 175.554 27.9691 174.936 26.7507C174.323 25.5325 174.017 24.1304 174.017 22.5447C174.017 20.9384 174.326 19.5296 174.945 18.3181C175.572 17.0998 176.46 16.1504 177.61 15.4698C178.76 14.7823 180.128 14.4386 181.714 14.4386C183.082 14.4386 184.28 14.6871 185.307 15.1839C186.336 15.6808 187.148 16.3784 187.747 17.2768C188.346 18.1752 188.676 19.2301 188.738 20.4416H184.634C184.518 19.6589 184.212 19.0294 183.715 18.5529C183.225 18.0697 182.582 17.8281 181.785 17.8281C181.111 17.8281 180.523 18.0118 180.02 18.3793C179.523 18.7401 179.135 19.2675 178.856 19.9618C178.577 20.656 178.437 21.4965 178.437 22.4834C178.437 23.4839 178.573 24.3346 178.845 25.0356C179.124 25.7367 179.516 26.2709 180.02 26.6384C180.523 27.0059 181.111 27.1898 181.785 27.1898C182.282 27.1898 182.728 27.0877 183.123 26.8835C183.524 26.6793 183.855 26.3832 184.113 25.9953C184.379 25.6006 184.552 25.1275 184.634 24.5763H188.738C188.669 25.7741 188.344 26.8291 187.758 27.7411C187.18 28.6462 186.38 29.354 185.359 29.8645C184.338 30.375 183.13 30.6302 181.735 30.6302ZM198.608 30.6302C197.022 30.6302 195.65 30.2933 194.493 29.6195C193.343 28.9389 192.455 27.9929 191.828 26.7814C191.202 25.5631 190.89 24.1508 190.89 22.5447C190.89 20.9248 191.202 19.5092 191.828 18.2977C192.455 17.0794 193.343 16.1334 194.493 15.4596C195.65 14.779 197.022 14.4386 198.608 14.4386C200.193 14.4386 201.561 14.779 202.711 15.4596C203.868 16.1334 204.76 17.0794 205.386 18.2977C206.013 19.5092 206.326 20.9248 206.326 22.5447C206.326 24.1508 206.013 25.5631 205.386 26.7814C204.76 27.9929 203.868 28.9389 202.711 29.6195C201.561 30.2933 200.193 30.6302 198.608 30.6302ZM198.627 27.2613C199.349 27.2613 199.951 27.0571 200.435 26.6487C200.918 26.2336 201.282 25.6686 201.527 24.954C201.779 24.2393 201.905 23.426 201.905 22.514C201.905 21.602 201.779 20.7887 201.527 20.074C201.282 19.3594 200.918 18.7945 200.435 18.3793C199.951 17.9642 199.349 17.7566 198.627 17.7566C197.9 17.7566 197.287 17.9642 196.79 18.3793C196.301 18.7945 195.929 19.3594 195.677 20.074C195.432 20.7887 195.31 21.602 195.31 22.514C195.31 23.426 195.432 24.2393 195.677 24.954C195.929 25.6686 196.301 26.2336 196.79 26.6487C197.287 27.0571 197.9 27.2613 198.627 27.2613ZM209.153 30.3239V14.6428H213.299V17.4095H213.482C213.809 16.4907 214.353 15.7659 215.115 15.235C215.878 14.7041 216.789 14.4386 217.852 14.4386C218.927 14.4386 219.842 14.7075 220.598 15.2452C221.353 15.7761 221.857 16.4975 222.108 17.4095H222.272C222.592 16.5111 223.171 15.7931 224.008 15.2554C224.852 14.7109 225.849 14.4386 226.999 14.4386C228.463 14.4386 229.65 14.9049 230.562 15.8373C231.48 16.7629 231.94 18.0765 231.94 19.778V30.3239H227.601V20.6355C227.601 19.7644 227.37 19.111 226.906 18.6754C226.444 18.2398 225.865 18.022 225.172 18.022C224.382 18.022 223.766 18.2739 223.324 18.7776C222.881 19.2743 222.66 19.9311 222.66 20.7479V30.3239H218.444V20.5437C218.444 19.7746 218.223 19.162 217.78 18.706C217.344 18.25 216.769 18.022 216.055 18.022C215.572 18.022 215.136 18.1446 214.748 18.3896C214.367 18.6278 214.064 18.9647 213.839 19.4003C213.615 19.8291 213.503 20.3327 213.503 20.9112V30.3239H209.153Z" fill="#101010" fill-opacity="0.69"/>
</svg>
