<svg width="147" height="40" viewBox="0 0 147 40" fill="none" xmlns="http://www.w3.org/2000/svg">
<mask id="mask0_17_93" style="mask-type:luminance" maskUnits="userSpaceOnUse" x="0" y="0" width="139" height="40">
<path d="M138.452 0.113586H0.890625V39.0709H138.452V0.113586Z" fill="white"/>
</mask>
<g mask="url(#mask0_17_93)">
<path d="M67.0119 30.5876H62.7355C62.7085 30.5876 62.7085 30.5876 62.6949 30.574L59.014 26.0811L55.3331 30.574C55.3196 30.5876 55.306 30.5876 55.2925 30.5876H51.8687C51.8416 30.5876 51.8281 30.574 51.8145 30.5606C51.8145 30.547 51.8145 30.52 51.8281 30.5064L57.2547 23.8483L51.8958 17.2578C51.8822 17.2307 51.8822 17.2171 51.8822 17.1901C51.8958 17.1765 51.9092 17.1631 51.9228 17.1631H56.1992C56.2128 17.1631 56.2262 17.1765 56.2398 17.1901L59.4741 21.1959L62.7626 17.1901C62.7761 17.1765 62.7896 17.1631 62.8032 17.1631H66.2812C66.2946 17.1631 66.3217 17.1765 66.3353 17.1901C66.3488 17.2171 66.3353 17.2307 66.3217 17.2578L61.2469 23.361L67.066 30.5064C67.0796 30.52 67.0796 30.547 67.0796 30.5606C67.0525 30.5876 67.039 30.5876 67.0119 30.5876Z" fill="#101010" fill-opacity="0.69"/>
<path d="M90.1395 19.5177C88.2449 19.5177 86.9592 20.6681 86.5804 22.6573H93.0219V22.522C93.0219 20.9387 91.8446 19.5177 90.1395 19.5177ZM96.3375 24.7143C96.324 24.7279 96.3104 24.7414 96.2969 24.7414H86.5127C86.7157 27.0149 88.1907 28.3141 90.586 28.3141C92.0612 28.3141 93.6309 27.8133 95.8368 26.636C95.8774 26.6089 95.9179 26.6495 95.9179 26.6901V29.6944C95.9179 29.7215 95.9045 29.735 95.8909 29.735C93.8339 30.6011 91.7634 31.1965 90.1395 31.1965C85.9307 31.1965 82.8724 28.1246 82.8724 23.9024C82.8724 19.6802 85.9307 16.6082 90.1395 16.6082C93.9828 16.6082 96.4457 19.1929 96.4457 22.7521C96.4457 23.334 96.351 24.6737 96.3375 24.7143Z" fill="#101010" fill-opacity="0.69"/>
<path d="M116.203 14.3753C115 14.3753 114.025 13.4145 114.025 12.2371C114.025 11.0192 115 10.0312 116.203 10.0312C117.408 10.0312 118.383 11.0192 118.383 12.2371C118.383 13.4145 117.408 14.3753 116.203 14.3753ZM114.444 30.5875C114.403 30.5875 114.391 30.5741 114.391 30.5335V17.2036C114.391 17.1766 114.403 17.1495 114.431 17.1495H117.963C117.99 17.1495 118.003 17.1766 118.003 17.2036V30.5335C118.003 30.5741 117.976 30.5875 117.95 30.5875H114.444Z" fill="#101010" fill-opacity="0.69"/>
<path d="M73.4807 28.5847C72.8446 28.5847 72.195 28.49 71.4372 28.3005L71.4507 19.7478C72.3303 19.4636 73.0882 19.3418 73.846 19.3418C76.2955 19.3418 77.933 21.1417 77.933 23.8347C77.933 26.7172 76.1872 28.5847 73.4807 28.5847ZM74.4414 16.6082C73.4401 16.6082 72.4386 16.7842 71.3831 17.1495H67.8646C67.8375 17.1495 67.8104 17.1765 67.8104 17.2037V39.0591C68.8659 38.9103 70.1652 38.5314 71.4372 37.6382V30.9935C72.3033 31.1154 73.0206 31.1965 73.7107 31.1965C78.5284 31.1965 81.641 28.3141 81.641 23.8483C81.641 19.5854 78.6773 16.6082 74.4414 16.6082Z" fill="#101010" fill-opacity="0.69"/>
<path d="M108.016 27.4751C106.92 28.0569 105.932 28.3276 105.012 28.3276C102.834 28.3276 101.52 26.7848 101.52 24.2001C101.52 21.2229 103.185 19.2876 105.77 19.2876C106.487 19.2876 107.177 19.4636 108.016 19.8426V27.4751ZM108.016 10.0989V17.0683C106.988 16.7706 106.081 16.6353 105.16 16.6353C100.965 16.6353 97.8126 19.7884 97.8126 23.9836C97.8126 28.1516 100.6 31.1831 104.443 31.1831C105.77 31.1831 107.015 30.8447 108.477 30.1004V31.3048C109.438 31.1154 110.547 30.7364 111.643 29.9516V8.66443C110.574 8.8133 109.302 9.17868 108.016 10.0989Z" fill="#101010" fill-opacity="0.69"/>
<path d="M130.25 27.448C129.182 28.0569 128.275 28.3546 127.463 28.3546C125.121 28.3546 123.728 26.8119 123.728 24.2271C123.728 21.2905 125.379 19.3147 127.829 19.3147C128.478 19.3147 129.277 19.5719 130.25 20.0861V27.448ZM133.878 16.9871C133.878 16.9059 133.81 16.8382 133.728 16.8382H130.874C130.792 16.8382 130.711 16.9059 130.711 16.9871V17.4743H130.643C129.33 16.8924 128.194 16.6352 127.098 16.6352C123.146 16.6352 120.047 19.9102 120.047 24.1053C120.047 28.3411 122.821 31.183 126.949 31.183C128.045 31.183 129.466 31.1018 130.792 29.5861V31.3048C131.725 31.1018 132.836 30.7093 133.878 29.9515V16.9871Z" fill="#101010" fill-opacity="0.69"/>
<path d="M42.0981 27.2586H50.962C50.8267 28.2465 50.4884 29.4103 49.7306 30.5877H40.5147C39.3915 30.5877 38.4578 29.708 38.3495 28.6119C38.3495 28.5983 38.336 28.5847 38.336 28.5577V11.0733C38.336 11.0598 38.3495 11.0463 38.3495 11.0327C38.4578 9.92307 39.3915 9.0434 40.5147 9.0434H50.9486C50.8133 10.0313 50.4749 11.2222 49.7035 12.3996H42.0981V17.1631H49.6359C49.6629 17.1631 49.69 17.1901 49.69 17.2172V20.5192C49.69 20.5463 49.6629 20.5733 49.6359 20.5733H42.0981V27.2586Z" fill="#101010" fill-opacity="0.69"/>
<path d="M19.5659 12.3859L18.9299 10.5725L13.4627 3.27835L14.437 3.03475L23.8423 11.168L29.3772 9.58464C30.0268 9.42225 30.771 9.38164 31.326 9.38164C29.5938 5.63306 26.4 2.54757 22.2048 1.05897C13.9092 -1.90472 4.77456 2.43931 1.82441 10.7484C0.904178 13.3197 0.701186 15.9721 1.0801 18.4892L14.3287 13.8881L19.5659 12.3859Z" fill="#101010" fill-opacity="0.69"/>
<path d="M31.9214 10.8162C31.4341 11.1274 30.717 11.547 30.0133 11.777L24.4648 13.3603L20.7703 25.2422L19.8094 25.5534L20.5944 16.4865L20.1614 14.6054L14.9648 16.094L1.21539 19.3013C2.31155 24.5791 6.04661 29.1938 11.5004 31.1289C19.8094 34.0926 28.9306 29.7486 31.8942 21.4394C33.1663 17.8803 33.0852 14.1453 31.9214 10.8162Z" fill="#101010" fill-opacity="0.69"/>
<path d="M20.1478 14.5918L20.5809 16.4729L19.7959 25.5399L20.7568 25.2286L24.4512 13.3468L29.9997 11.7634C30.7034 11.5333 31.4206 11.1274 31.9078 10.8026C31.7319 10.3154 31.5424 9.84183 31.3258 9.36813C30.7575 9.36813 30.0267 9.39519 29.3772 9.57112L23.8422 11.1544L14.437 3.02124L13.4626 3.26483L18.9163 10.559L19.5524 12.3725L14.3151 13.8745L1.06653 18.4757C1.10713 18.7464 1.16126 19.0305 1.21539 19.3012L14.9512 16.0669L20.1478 14.5918Z" fill="white"/>
</g>
</svg>
