<svg width="250" height="40" viewBox="0 0 250 40" fill="none" xmlns="http://www.w3.org/2000/svg">
<mask id="mask0_17_108" style="mask-type:luminance" maskUnits="userSpaceOnUse" x="0" y="0" width="250" height="40">
<path d="M249.055 0.0800171H0.918457V39.1044H249.055V0.0800171Z" fill="white"/>
</mask>
<g mask="url(#mask0_17_108)">
<path d="M30.6258 23.524C32.8209 29.4557 39.4258 32.4605 45.3575 30.324C51.2892 28.1288 54.2941 21.524 52.0892 15.5922C49.8941 9.66058 43.2892 6.6557 37.3575 8.79228C31.4941 10.9971 28.4892 17.5922 30.6258 23.524Z" fill="white"/>
<path d="M20.59 30.0397C26.3981 27.5205 29.0643 20.7699 26.5452 14.9618C24.0261 9.15368 17.2755 6.48743 11.4674 9.00656C5.65926 11.5257 2.99301 18.2763 5.51214 24.0844C8.03127 29.8925 14.7819 32.5588 20.59 30.0397Z" fill="white"/>
<path d="M17.9622 19.3971C17.9622 20.5971 17.0256 21.5337 15.8256 21.5337C14.6256 21.5337 13.689 20.5971 13.689 19.3971C13.689 18.2654 14.6256 17.2605 15.8256 17.2605C17.0256 17.2605 17.9622 18.2556 17.9622 19.3971Z" fill="#101010" fill-opacity="0.69"/>
<path d="M43.4941 19.3971C43.4941 20.5971 42.5575 21.5337 41.3575 21.5337C40.1575 21.5337 39.2209 20.5971 39.2209 19.3971C39.2209 18.2654 40.1575 17.2605 41.3575 17.2605C42.5575 17.2605 43.4941 18.2556 43.4941 19.3971Z" fill="#101010" fill-opacity="0.69"/>
<path d="M9.56223 19.3972C9.56223 22.8606 12.3623 25.6606 15.8257 25.6606C19.2891 25.6606 22.0891 22.8606 22.0891 19.3972C22.0891 15.9338 19.2891 13.1338 15.8257 13.1338C12.4306 13.1241 9.56223 15.9241 9.56223 19.3972ZM11.7574 19.3972C11.7574 17.1338 13.6208 15.2606 15.894 15.2606C18.1574 15.2606 20.0306 17.1241 20.0306 19.3972C20.0306 21.6704 18.1671 23.5338 15.894 23.5338C13.6306 23.5241 11.7574 21.6606 11.7574 19.3972Z" fill="#101010" fill-opacity="0.69"/>
<path d="M35.0939 19.3972C35.0939 22.8606 37.8939 25.6606 41.3573 25.6606C44.8207 25.6606 47.6207 22.8606 47.6207 19.3972C47.6207 15.9338 44.8207 13.1338 41.3573 13.1338C37.8939 13.1241 35.0939 15.9241 35.0939 19.3972ZM37.2305 19.3972C37.2305 17.1338 39.0939 15.2606 41.367 15.2606C43.6305 15.2606 45.5036 17.1241 45.5036 19.3972C45.5036 21.6704 43.6402 23.5338 41.367 23.5338C39.0939 23.5241 37.2305 21.6606 37.2305 19.3972Z" fill="#101010" fill-opacity="0.69"/>
<path d="M36.9574 7.59232C38.294 7.12403 39.6208 6.86062 40.9574 6.86062C37.2891 5.19232 33.1623 4.39233 28.6257 4.39233C24.0891 4.39233 19.894 5.26063 16.2257 6.79233C22.8208 6.92892 28.1574 12.0606 28.6257 18.5875C28.7623 17.1241 29.094 15.5924 29.7574 14.1875C31.2306 11.1241 33.8257 8.79233 36.9574 7.59232Z" fill="#101010" fill-opacity="0.69"/>
<path d="M51.6209 11.9923C52.216 9.45567 54.0892 6.86055 54.0892 6.86055H45.6209C40.8892 3.79714 35.0941 2.12885 28.6941 2.12885C22.0307 2.12885 16.0307 3.79714 11.2989 6.92885H3.35748C3.35748 6.92885 5.2209 9.46543 5.82578 11.9923C4.29407 14.1288 3.35748 16.6557 3.35748 19.524C3.35748 26.5191 9.09407 32.2557 16.0892 32.2557C20.0892 32.2557 23.6892 30.3923 26.0209 27.4557L28.7526 31.524L31.4843 27.4557C32.6843 28.9874 34.2843 30.2557 36.1477 31.124C39.2111 32.5191 42.6843 32.6557 45.8843 31.524C52.4794 29.0557 55.816 21.7288 53.416 15.1923C52.8892 13.9923 52.2941 12.9288 51.6209 11.9923ZM28.6258 4.39226C33.2209 4.39226 37.3575 5.19226 40.9575 6.86055C39.6209 6.92885 38.2941 7.12397 36.9575 7.59226C33.7575 8.79226 31.2209 11.124 29.8258 14.1874C29.1624 15.5825 28.8307 17.0557 28.6941 18.5874C28.2258 12.0508 22.8989 6.91909 16.2941 6.79226C19.8941 5.26055 24.0892 4.39226 28.6258 4.39226ZM24.4307 25.1923C22.6355 27.8557 19.4941 29.6605 16.0307 29.6605C10.4307 29.6605 5.89407 25.124 5.89407 19.524C5.89407 13.924 10.4307 9.39714 16.0307 9.39714C21.6307 9.39714 26.1672 13.9337 26.1672 19.5337C26.1672 19.8654 26.0989 20.1971 26.0307 20.5288C25.8941 22.2557 25.3575 23.8557 24.4307 25.1923ZM44.8892 29.124C42.3526 30.0605 39.5526 29.924 37.0941 28.7922C35.3575 27.9922 33.8941 26.724 32.8989 25.124C32.4989 24.4605 32.0989 23.7874 31.8355 23.0557C31.5038 22.1874 31.3672 21.3874 31.2989 20.4605C31.1038 18.724 31.3672 16.9288 32.1672 15.2605C33.2989 12.7923 35.2989 10.9288 37.9038 9.99225C43.1721 8.06055 49.0355 10.724 50.9672 15.9923C52.8892 21.3288 50.1575 27.124 44.8892 29.124Z" fill="#101010" fill-opacity="0.69"/>
<path d="M185.816 4.19711C185.816 5.5337 186.948 6.66541 188.284 6.66541C189.621 6.66541 190.753 5.5337 190.753 4.19711C190.753 2.86053 189.621 1.72882 188.284 1.72882C186.879 1.72882 185.816 2.86053 185.816 4.19711Z" fill="#101010" fill-opacity="0.69"/>
<path d="M69.0939 4.06054L65.3573 5.32883C65.3573 5.32883 65.3573 9.79709 65.3573 10.1971C64.9573 10.1971 61.2207 10.1971 61.2207 10.1971V13.4654C61.2207 13.4654 64.8207 13.4654 65.2207 13.4654C65.2207 13.8654 65.2207 23.9337 65.2207 23.9337C65.2207 28.9288 66.889 30.9288 71.0841 30.9288C72.1475 30.9288 73.1524 30.7922 74.1475 30.5288L74.2841 30.4605L74.2158 27.0654L73.9524 27.202C73.1524 27.4654 72.489 27.602 72.0207 27.602C70.089 27.602 69.3573 26.4703 69.3573 23.5337C69.3573 23.5337 69.3573 13.8654 69.3573 13.3971C69.7573 13.3971 74.089 13.3971 74.089 13.3971V10.1288C74.089 10.1288 69.7573 10.1288 69.3573 10.1288C69.3573 9.72883 69.3573 3.86542 69.3573 3.86542L69.0939 4.06054Z" fill="#101010" fill-opacity="0.69"/>
<path d="M82.0209 13.4556C82.0209 12.3239 82.0209 10.1191 82.0209 10.1191H78.2258V30.5191H82.3624V20.3239C82.3624 16.0605 84.1575 13.6605 87.4258 13.6605C87.8941 13.6605 88.3624 13.7288 88.8892 13.8556L89.1526 13.9239L89.2892 9.92394L87.4941 9.78735C85.1526 9.85565 83.2209 11.1239 82.0209 13.4556Z" fill="#101010" fill-opacity="0.69"/>
<path d="M111.484 9.72888C108.616 9.72888 106.284 11.0654 104.684 13.524C104.684 12.5288 104.684 10.1874 104.684 10.1874H100.889V38.8508H105.026C105.026 38.8508 105.026 28.8508 105.026 27.7191C106.489 29.7191 108.626 30.8508 111.289 30.8508C116.489 30.8508 119.884 26.5874 119.884 19.9142C119.953 13.8557 116.557 9.72888 111.484 9.72888ZM110.353 27.524C107.084 27.524 105.084 24.724 105.084 20.2557C105.084 15.924 107.221 13.124 110.548 13.124C113.748 13.124 115.679 15.7874 115.679 20.1874C115.621 24.724 113.553 27.524 110.353 27.524Z" fill="#101010" fill-opacity="0.69"/>
<path d="M132.021 9.72888C129.484 9.72888 127.289 10.1971 125.221 11.1922L125.084 11.2605L125.153 14.7922L125.484 14.5971C127.416 13.5337 129.279 12.9288 130.948 12.9288C133.943 12.9288 135.679 14.6654 135.679 17.6605V17.8557C135.348 17.8557 133.348 17.8557 133.348 17.8557C126.548 17.8557 122.811 20.324 122.811 24.7922C122.811 28.3922 125.543 30.8605 129.406 30.8605C132.275 30.8605 134.47 29.7288 136.001 27.6605C136.001 28.4605 136.001 30.5971 136.001 30.5971H139.738V18.2557C139.621 12.5971 137.084 9.72888 132.021 9.72888ZM135.621 21.9922C135.621 25.524 133.484 27.7874 130.226 27.7874C128.226 27.7874 126.831 26.4508 126.831 24.5874C126.831 22.1191 129.162 20.7922 133.494 20.7922C133.494 20.7922 135.289 20.7922 135.631 20.7922C135.621 21.0557 135.621 21.9922 135.621 21.9922Z" fill="#101010" fill-opacity="0.69"/>
<path d="M157.221 0.46056C157.221 0.46056 157.221 11.7971 157.221 12.9288C155.689 10.7922 153.553 9.66056 150.821 9.66056C145.757 9.66056 142.353 13.7971 142.353 19.9922C142.353 26.3922 145.816 30.7922 150.753 30.7922C153.689 30.7922 155.953 29.5239 157.553 26.9971C157.553 27.9922 157.553 30.4605 157.553 30.4605H161.348V0.323975H157.211V0.46056H157.221ZM151.816 27.4557C148.684 27.4557 146.684 24.7239 146.684 20.3239C146.684 15.9239 148.684 13.0557 151.679 13.0557C155.075 13.0557 157.143 15.7874 157.143 20.3239C157.221 24.6557 155.084 27.4557 151.816 27.4557Z" fill="#101010" fill-opacity="0.69"/>
<path d="M179.816 10.1971L173.953 21.924L168.548 10.1971H163.884L173.816 30.5874L184.079 10.1971H179.816Z" fill="#101010" fill-opacity="0.69"/>
<path d="M190.148 10.1971H186.216V30.5874H190.353V10.1971H190.148Z" fill="#101010" fill-opacity="0.69"/>
<path d="M195.211 15.3971C195.211 18.2654 197.211 19.7971 200.811 21.5337C203.075 22.6654 204.275 23.3288 204.275 24.9288C204.275 26.5288 202.811 27.5922 200.538 27.5922C198.938 27.5922 197.143 27.1239 195.338 26.2556L195.006 26.1191L194.87 29.7191L195.006 29.7874C196.675 30.4508 198.47 30.7825 200.343 30.7825C205.406 30.7825 208.675 28.3825 208.675 24.6459C208.675 21.5142 206.606 19.9825 203.006 18.3142C200.411 17.1142 199.27 16.3825 199.27 15.0459C199.27 13.7776 200.47 12.9776 202.401 12.9776C204.138 12.9776 205.797 13.3776 207.338 14.1093L207.601 14.2459L207.797 10.7142L207.66 10.6459C205.923 10.1093 204.265 9.91418 202.665 9.91418C198.216 9.92394 195.211 12.1288 195.211 15.3971Z" fill="#101010" fill-opacity="0.69"/>
<path d="M221.611 9.72888C215.416 9.72888 211.543 13.7971 211.543 20.3922C211.543 26.9874 215.406 31.0557 221.611 31.0557C227.875 31.0557 231.748 26.9874 231.748 20.3922C231.679 13.7971 227.816 9.72888 221.611 9.72888ZM221.611 27.6605C218.216 27.6605 215.875 24.724 215.875 20.324C215.875 15.924 218.206 12.9874 221.611 12.9874C225.075 12.9874 227.348 15.8557 227.348 20.324C227.348 24.7922 225.084 27.6605 221.611 27.6605Z" fill="#101010" fill-opacity="0.69"/>
<path d="M239.348 13.4556C239.348 12.3239 239.348 10.1191 239.348 10.1191H235.553V30.5191H239.689V20.3239C239.689 16.0605 241.484 13.6605 244.753 13.6605C245.221 13.6605 245.689 13.7288 246.216 13.8556L246.479 13.9239L246.616 9.92394L244.821 9.78735C242.479 9.85565 240.548 11.1239 239.348 13.4556Z" fill="#101010" fill-opacity="0.69"/>
<path d="M96.6842 10.1971H92.7525V30.5874H96.8891V10.1971H96.6842Z" fill="#101010" fill-opacity="0.69"/>
<path d="M92.3526 4.19711C92.3526 5.5337 93.4843 6.66541 94.8209 6.66541C96.1575 6.66541 97.2892 5.5337 97.2892 4.19711C97.2892 2.86053 96.1575 1.72882 94.8209 1.72882C93.4843 1.72882 92.3526 2.86053 92.3526 4.19711Z" fill="#101010" fill-opacity="0.69"/>
</g>
</svg>
