<svg width="128" height="40" viewBox="0 0 128 40" fill="none" xmlns="http://www.w3.org/2000/svg">
<mask id="mask0_17_143" style="mask-type:luminance" maskUnits="userSpaceOnUse" x="1" y="0" width="126" height="40">
<path d="M126.367 0.0800171H1.1283V39.1044H126.367V0.0800171Z" fill="white"/>
</mask>
<g mask="url(#mask0_17_143)">
<path d="M42.5174 8.67029H49.1441L54.1756 22.2921H54.2984L59.0843 8.67029H65.343L57.489 28.7961H50.9849" fill="#101010" fill-opacity="0.69"/>
<path d="M18.3418 13.7017H12.2058V20.4512C12.2058 21.5557 12.3286 23.0283 13.4331 23.7647C14.5376 24.2555 15.7647 24.3782 16.9919 24.1328C17.4828 24.1328 17.9736 23.8873 18.3418 23.6419V28.7961C17.6055 29.0415 16.7464 29.1643 16.0101 29.2869C11.5923 29.7778 5.57911 28.9188 5.57911 23.3965V13.8245H1.16125V8.67029H5.45639V2.77982H12.2058V8.67029H18.3418V13.7017ZM35.6451 8.67029H41.781V28.7961H35.6451V8.67029ZM35.3996 3.39341C35.2769 1.67535 36.7496 0.0800171 38.5903 0.0800171C40.4311 0.0800171 41.9037 1.42992 41.9037 3.27069V3.39341C41.9037 5.23418 40.3084 6.7068 38.5903 6.58408C36.8723 6.58408 35.3996 5.23418 35.3996 3.39341Z" fill="#101010" fill-opacity="0.69"/>
<path d="M111.731 18.7331C111.731 21.4329 113.326 23.7645 116.148 23.7645C118.971 23.7645 120.567 21.4329 120.567 18.7331C120.567 16.0333 118.971 13.7016 116.148 13.7016C113.326 13.7016 111.731 16.0333 111.731 18.7331ZM106.209 18.7331C105.963 13.2108 110.257 8.42478 115.78 8.17935C119.093 8.05664 122.162 9.52925 124.248 12.1063C126.702 15.6651 127.07 20.2057 125.107 24.1327C122.407 29.0414 116.271 30.7595 111.363 28.0597C108.049 26.2189 105.963 22.6601 106.209 18.7331ZM99.5813 8.67023V11.37H99.4584C99.3354 11.1245 99.0906 10.8792 98.8447 10.6337C94.7954 7.1976 88.0459 7.93391 85.4687 12.72C84.2416 15.297 83.8734 18.2422 84.3643 21.0647C84.7324 23.6418 85.7142 26.3416 87.9232 27.8143C90.5002 29.4096 93.5681 29.7777 96.3907 28.6733C97.3724 28.3051 98.2311 27.5688 98.9676 26.7098H99.0906V28.6733C99.2135 30.0232 98.7228 31.2504 97.8634 32.2322C96.1453 34.0729 92.7091 33.9502 90.3775 33.3365C89.1503 32.9685 87.9232 32.4775 86.8187 31.7412L83.7507 36.1591C85.2234 37.2636 86.8187 37.9999 88.5367 38.4908C92.9546 39.5952 98.9676 39.5952 102.404 36.1591C104.368 34.1956 105.103 31.2504 105.103 27.4461V8.67023H99.5813ZM98.1091 22.5374C96.3907 24.3781 93.5681 24.5008 91.7273 22.7828L91.482 22.5374C89.8867 20.3285 89.8867 17.3832 91.482 15.1743C93.2 13.3335 96.0226 13.2108 97.8634 14.9288L98.1091 15.1743C99.7042 17.2605 99.7042 20.3285 98.1091 22.5374C98.8447 21.5557 97.2497 23.3965 98.1091 22.5374Z" fill="#101010" fill-opacity="0.69"/>
<path d="M19.9372 8.67032H26.1958V11.9837H26.3186C26.8095 10.8792 27.6685 9.89745 28.6503 9.16119C30.3683 8.30216 32.3317 7.934 34.1725 8.42488V14.0699C32.9454 13.7017 30.2456 13.2109 28.4048 14.3154C27.1776 15.0517 26.3186 15.9107 26.3186 20.3286V28.6733H20.0599L19.9372 8.67032Z" fill="#101010" fill-opacity="0.69"/>
<path d="M71.1106 20.8194C69.8835 21.5557 69.0245 23.0283 70.129 24.2555C71.2334 25.3599 73.1969 25.2372 74.5468 24.7463C76.1422 24.3782 77.2466 22.9055 77.2466 21.3102V20.083C77.3693 20.083 72.7061 19.8376 71.1106 20.8194ZM77.3693 26.3416C76.633 27.3234 75.6512 28.1824 74.5468 28.6733C70.129 30.5141 63.8704 28.6733 63.7476 23.151C63.7476 17.3832 70.0063 16.2788 74.5468 16.1561H77.3693C77.3693 15.1743 77.0012 14.1926 76.1422 13.579C75.3584 12.9845 74.4177 12.6328 73.4361 12.5674C72.4546 12.5019 71.4755 12.7256 70.6198 13.2108C69.7608 13.7017 69.0245 14.1926 68.4108 14.9288L64.9747 11.4927C66.0792 10.3883 67.5518 9.65199 69.0245 9.0384C71.847 8.05665 74.7922 7.93393 77.6147 8.67024C80.1918 9.40655 82.0326 11.4927 82.5235 14.0698C82.7689 15.5425 82.8916 17.0151 82.8916 18.4877V28.6733H77.2466L77.3693 26.3416Z" fill="#101010" fill-opacity="0.69"/>
</g>
</svg>
